<?xml version="1.0" standalone="no"?><!DOCTYPE svg PUBLIC "-//W3C//DTD SVG 1.1//EN" "http://www.w3.org/Graphics/SVG/1.1/DTD/svg11.dtd"><svg class="icon" width="16px" height="16.00px" viewBox="0 0 1024 1024" version="1.1" xmlns="http://www.w3.org/2000/svg"><path fill="#333333" d="M776.2 541.3c-75.1 0-136.2 58.6-136.2 130.5 0 72 61.1 130.5 136.2 130.5s136.2-58.6 136.2-130.5-61.1-130.5-136.2-130.5z m0 225.4c-55.4 0-100.5-42.6-100.5-94.9 0-52.3 45.1-94.8 100.5-94.8s100.5 42.5 100.5 94.8c0 52.4-45.1 94.9-100.5 94.9zM467.2 706.3c-9.9 0-17.8-8-17.8-17.8V216.3c0-17.6 8.6-34 23.1-44 14.4-10 32.9-12.3 49.3-6.1l355.9 134c20.7 7.8 34.7 27.9 34.7 50.1v321.5c0 9.9-8 17.8-17.8 17.8s-17.8-8-17.8-17.8V350.3c0-7.4-4.6-14.1-11.6-16.7l-355.9-134c-5.5-2.1-11.6-1.4-16.4 2-4.9 3.4-7.7 8.7-7.7 14.7v472.2c-0.1 9.8-8.1 17.8-18 17.8zM467.2 287.5l427.3 160.9M894.5 466.2c-2.1 0-4.2-0.4-6.3-1.2L460.9 304.2c-9.2-3.5-13.9-13.8-10.4-23s13.7-13.9 23-10.4l427.3 160.9c9.2 3.5 13.9 13.8 10.4 23-2.7 7.1-9.5 11.5-16.7 11.5zM306.2 517.2c-98.6 0-178.9 76.8-178.9 171.2s80.3 171.2 178.9 171.2 178.9-76.8 178.9-171.2-80.3-171.2-178.9-171.2z m0 306.8c-79 0-143.2-60.8-143.2-135.5s64.2-135.6 143.2-135.6 143.2 60.8 143.2 135.6c0 74.7-64.3 135.5-143.2 135.5z" /></svg>