<?xml version="1.0" encoding="utf-8"?>
<!-- Generator: Adobe Illustrator 23.1.0, SVG Export Plug-In . SVG Version: 6.00 Build 0)  -->
<svg version="1.1" id="图层_1" xmlns="http://www.w3.org/2000/svg" xmlns:xlink="http://www.w3.org/1999/xlink" x="0px" y="0px"
	 viewBox="0 0 16 16" style="enable-background:new 0 0 16 16;" xml:space="preserve">
<style type="text/css">
	.st0{fill:#333333;}
</style>
<path class="st0" d="M8,0C3.8,0,0.3,3.5,0.3,7.7c0,1.9,0.7,3.8,2,5.2c0,0,0,0,0.1,0.1v1.7C2.4,15.4,3,16,3.7,16S5,15.4,5,14.7v-3
	c0-0.7-0.6-1.3-1.3-1.3c-0.7,0-1.2,0.5-1.3,1.1c-0.8-1.1-1.2-2.5-1.2-3.9C1.2,4,4.3,0.9,8,0.9c3.8,0,6.8,3.1,6.8,6.8
	c0,1.3-0.4,2.6-1.1,3.7c-0.1-0.6-0.6-1-1.3-1c-0.7,0-1.3,0.6-1.3,1.3v3c0,0.7,0.6,1.3,1.3,1.3s1.3-0.6,1.3-1.3v-2
	c0.1,0,0.2-0.1,0.3-0.2c1.1-1.4,1.7-3.1,1.7-4.8C15.8,3.5,12.3,0,8,0z M3.3,11.7c0-0.2,0.2-0.4,0.4-0.4c0.2,0,0.4,0.2,0.4,0.4v3
	c0,0.2-0.2,0.4-0.4,0.4c-0.2,0-0.4-0.2-0.4-0.4C3.3,14.7,3.3,11.7,3.3,11.7z M12.9,14.7c0,0.2-0.2,0.4-0.4,0.4s-0.4-0.2-0.4-0.4v-3
	c0-0.2,0.2-0.4,0.4-0.4s0.4,0.2,0.4,0.4V14.7z"/>
</svg>
