<?xml version="1.0" standalone="no"?><!DOCTYPE svg PUBLIC "-//W3C//DTD SVG 1.1//EN" "http://www.w3.org/Graphics/SVG/1.1/DTD/svg11.dtd"><svg class="icon" width="16px" height="16.00px" viewBox="0 0 1024 1024" version="1.1" xmlns="http://www.w3.org/2000/svg"><path fill="#333333" d="M896.1 793.8c0-10.5-8.5-19.1-19.1-19.1H156.8c-10.5 0-19.1 8.5-19.1 19.1 0 10.5 8.5 19.1 19.1 19.1H877c10.6 0 19.1-8.6 19.1-19.1zM391.2 712.2c-7.5 0-14.5-3.7-18.8-9.9-4.3-6.2-5.3-14-2.6-21.1l34.2-91.5c3.1-8.4 7.3-16.1 12.3-23 1.8-2.5 3.4-4.4 5-6l377.4-389.3c13.6-14 31.9-21.7 51.5-21.7 18.8 0 36.5 7.2 49.9 20.2 13.7 13.3 21.4 31.2 21.7 50.4 0.3 19.2-6.9 37.3-20.2 51.1L524.4 660.6c-6.8 7.1-14.9 12.5-24 16.3l-0.9 0.3c-3 1.1-17.5 6-100.9 33.8-2.4 0.8-4.9 1.2-7.4 1.2z m459.1-534.5c-12 0-23.2 4.7-31.4 13.2L441.4 580.2c-0.4 0.4-1.2 1.3-2.5 3.1-3.5 4.8-6.4 10.3-8.7 16.2l-30.5 81.6c53.4-17.8 86.7-28.9 90.1-30.2 5.4-2.3 10.3-5.6 14.4-9.8l377.4-389.3c8.1-8.3 12.4-19.4 12.3-31.1-0.2-11.7-4.9-22.6-13.2-30.7-8.2-8-19-12.3-30.4-12.3z"  /></svg>