<?xml version="1.0" encoding="utf-8"?>
<!-- Generator: Adobe Illustrator 23.1.0, SVG Export Plug-In . SVG Version: 6.00 Build 0)  -->
<svg version="1.1" id="图层_1" xmlns="http://www.w3.org/2000/svg" xmlns:xlink="http://www.w3.org/1999/xlink" x="0px" y="0px"
	 viewBox="0 0 16 16" style="enable-background:new 0 0 16 16;" xml:space="preserve">
<style type="text/css">
	.st0{fill:#333333;}
</style>
<path class="st0" d="M7.7,12.4v1h0.5v-1c1.9-0.1,3.3-1.6,3.3-3.5V7h-0.3v0.2h-0.8V5.4C10.5,4,9.4,2.9,8,2.9S5.5,4,5.5,5.4v1.8H4.8V7
	H4.5v1.9C4.5,10.8,5.9,12.3,7.7,12.4z M8,3.4c1.1,0,2,0.9,2,2v1.8H6V5.4C6,4.3,6.9,3.4,8,3.4z M6,7.4h4v1.3c0,1.1-0.9,2-2,2
	s-2-0.9-2-2C6,8.8,6,7.4,6,7.4z M8.2,12.2v-0.9c1.3-0.1,2.3-1.2,2.3-2.5V7.4h0.8v1.5C11.3,10.7,9.9,12.1,8.2,12.2z M4.8,7.4h0.8v1.3
	c0,1.3,0.9,2.3,2.2,2.5v0.9C6,12,4.7,10.6,4.7,8.9L4.8,7.4L4.8,7.4z"/>
</svg>
