<?xml version="1.0" encoding="utf-8"?>
<!-- Generator: Adobe Illustrator 23.1.0, SVG Export Plug-In . SVG Version: 6.00 Build 0)  -->
<svg version="1.1" id="图层_1" xmlns="http://www.w3.org/2000/svg" xmlns:xlink="http://www.w3.org/1999/xlink" x="0px" y="0px"
	 viewBox="0 0 16 16" style="enable-background:new 0 0 16 16;" xml:space="preserve">
<style type="text/css">
	.st0{fill:#FFFFFF;}
</style>
<path class="st0" d="M6.8,10.7c-0.1,0-0.2,0-0.3-0.1L4.2,8.4C4,8.2,3.9,7.9,4.1,7.7c0.2-0.2,0.5-0.2,0.7,0l2.3,2.2
	c0.2,0.2,0.2,0.5,0,0.7C7.1,10.7,7,10.7,6.8,10.7z M6.8,10.7c-0.1,0-0.3-0.1-0.4-0.2c-0.2-0.2-0.2-0.5,0-0.7l4.7-4.4
	c0.2-0.2,0.5-0.2,0.7,0s0.2,0.5,0,0.7l-4.7,4.4C7.1,10.7,7,10.7,6.8,10.7z M8,16c-4.4,0-8-3.6-8-8s3.6-8,8-8s8,3.6,8,8S12.4,16,8,16
	z M8,1C4.1,1,1,4.1,1,8s3.1,7,7,7s7-3.1,7-7S11.9,1,8,1z"/>
</svg>
