<?xml version="1.0" encoding="utf-8"?>
<!-- Generator: Adobe Illustrator 23.1.0, SVG Export Plug-In . SVG Version: 6.00 Build 0)  -->
<svg version="1.1" id="图层_1" xmlns="http://www.w3.org/2000/svg" xmlns:xlink="http://www.w3.org/1999/xlink" x="0px" y="0px"
	 viewBox="0 0 16 16" style="enable-background:new 0 0 16 16;" xml:space="preserve">
<style type="text/css">
	.st0{fill:#FFFFFF;}
</style>
<path class="st0" d="M10.9,3.4c-3-1.6-6.7-0.4-8.3,2.6s-0.4,6.7,2.6,8.3s6.7,0.4,8.3-2.6c0.5-0.9,0.7-1.9,0.7-2.9
	c0-0.3-0.2-0.5-0.5-0.5s-0.5,0.2-0.5,0.5c0,0,0,0,0,0c0,2.8-2.3,5.1-5.1,5.1c-2.8,0-5.1-2.3-5.1-5.1C2.9,6,5.2,3.7,8,3.7
	c0.8,0,1.6,0.2,2.4,0.6c0.3,0.1,0.6,0,0.7-0.2C11.2,3.8,11.1,3.5,10.9,3.4z M8.5,4.9C8.2,5,8.1,5.3,8.2,5.6S8.7,6,8.9,5.9
	c0,0,0,0,0,0l2.4-1.1c0.3-0.1,0.4-0.4,0.3-0.7l-1.1-2.6C10.5,1.1,10.2,1,9.9,1.1S9.5,1.5,9.6,1.8L10.5,4L8.5,4.9L8.5,4.9z"/>
</svg>
