<?xml version="1.0" encoding="utf-8"?>
<!-- Generator: Adobe Illustrator 23.1.0, SVG Export Plug-In . SVG Version: 6.00 Build 0)  -->
<svg version="1.1" id="图层_1" xmlns="http://www.w3.org/2000/svg" xmlns:xlink="http://www.w3.org/1999/xlink" x="0px" y="0px"
	 viewBox="0 0 184 10" style="enable-background:new 0 0 184 10;" xml:space="preserve">
<style type="text/css">
	.st0{fill:#FFFFFF;}
	.st1{fill:#CCCCCC;}
</style>
<rect y="2.2" class="st0" width="1.3" height="5.5"/>
<rect x="11.4" y="2.2" class="st0" width="1.3" height="5.5"/>
<rect x="22.8" y="2.2" class="st0" width="1.3" height="5.5"/>
<rect x="34.3" y="2.2" class="st0" width="1.3" height="5.5"/>
<rect x="45.7" y="2.2" class="st0" width="1.3" height="5.5"/>
<rect x="57.1" y="2.2" class="st0" width="1.3" height="5.5"/>
<rect x="68.5" y="2.2" class="st0" width="1.3" height="5.5"/>
<rect x="79.9" y="2.2" class="st0" width="1.3" height="5.5"/>
<rect x="91.4" class="st0" width="1.3" height="10"/>
<rect x="102.8" y="2.2" class="st0" width="1.3" height="5.5"/>
<rect x="114.2" y="2.2" class="st0" width="1.3" height="5.5"/>
<rect x="125.6" y="2.2" class="st0" width="1.3" height="5.5"/>
<rect x="137.1" y="2.2" class="st0" width="1.3" height="5.5"/>
<rect x="148.5" y="2.2" class="st0" width="1.3" height="5.5"/>
<rect x="159.9" y="2.2" class="st0" width="1.3" height="5.5"/>
<rect x="171.3" y="2.2" class="st0" width="1.3" height="5.5"/>
<rect x="182.7" y="2.2" class="st0" width="1.3" height="5.5"/>
<rect x="2.7" y="4.1" class="st1" width="0.7" height="1.9"/>
<rect x="4.9" y="4.1" class="st1" width="0.7" height="1.9"/>
<rect x="7.1" y="4.1" class="st1" width="0.7" height="1.9"/>
<rect x="9.3" y="4.1" class="st1" width="0.7" height="1.9"/>
<rect x="25.6" y="4.1" class="st1" width="0.7" height="1.9"/>
<rect x="27.7" y="4.1" class="st1" width="0.7" height="1.9"/>
<rect x="29.9" y="4.1" class="st1" width="0.7" height="1.9"/>
<rect x="32.1" y="4.1" class="st1" width="0.7" height="1.9"/>
<rect x="37" y="4.1" class="st1" width="0.7" height="1.9"/>
<rect x="39.2" y="4.1" class="st1" width="0.7" height="1.9"/>
<rect x="41.3" y="4.1" class="st1" width="0.7" height="1.9"/>
<rect x="43.5" y="4.1" class="st1" width="0.7" height="1.9"/>
<rect x="48.4" y="4.1" class="st1" width="0.7" height="1.9"/>
<rect x="50.6" y="4.1" class="st1" width="0.7" height="1.9"/>
<rect x="52.8" y="4.1" class="st1" width="0.7" height="1.9"/>
<rect x="54.9" y="4.1" class="st1" width="0.7" height="1.9"/>
<rect x="59.8" y="4.1" class="st1" width="0.7" height="1.9"/>
<rect x="62" y="4.1" class="st1" width="0.7" height="1.9"/>
<rect x="64.2" y="4.1" class="st1" width="0.7" height="1.9"/>
<rect x="66.4" y="4.1" class="st1" width="0.7" height="1.9"/>
<rect x="71.3" y="4.1" class="st1" width="0.7" height="1.9"/>
<rect x="73.4" y="4.1" class="st1" width="0.7" height="1.9"/>
<rect x="75.6" y="4.1" class="st1" width="0.7" height="1.9"/>
<rect x="77.8" y="4.1" class="st1" width="0.7" height="1.9"/>
<rect x="82.7" y="4.1" class="st1" width="0.7" height="1.9"/>
<rect x="84.8" y="4.1" class="st1" width="0.7" height="1.9"/>
<rect x="87" y="4.1" class="st1" width="0.7" height="1.9"/>
<rect x="89.2" y="4.1" class="st1" width="0.7" height="1.9"/>
<rect x="94.1" y="4.1" class="st1" width="0.7" height="1.9"/>
<rect x="96.3" y="4.1" class="st1" width="0.7" height="1.9"/>
<rect x="98.4" y="4.1" class="st1" width="0.7" height="1.9"/>
<rect x="100.6" y="4.1" class="st1" width="0.7" height="1.9"/>
<rect x="105.5" y="4.1" class="st1" width="0.7" height="1.9"/>
<rect x="107.7" y="4.1" class="st1" width="0.7" height="1.9"/>
<rect x="109.9" y="4.1" class="st1" width="0.7" height="1.9"/>
<rect x="112" y="4.1" class="st1" width="0.7" height="1.9"/>
<rect x="116.9" y="4.1" class="st1" width="0.7" height="1.9"/>
<rect x="119.1" y="4.1" class="st1" width="0.7" height="1.9"/>
<rect x="121.3" y="4.1" class="st1" width="0.7" height="1.9"/>
<rect x="123.5" y="4.1" class="st1" width="0.7" height="1.9"/>
<rect x="128.4" y="4.1" class="st1" width="0.7" height="1.9"/>
<rect x="130.5" y="4.1" class="st1" width="0.7" height="1.9"/>
<rect x="132.7" y="4.1" class="st1" width="0.7" height="1.9"/>
<rect x="134.9" y="4.1" class="st1" width="0.7" height="1.9"/>
<rect x="139.8" y="4.1" class="st1" width="0.7" height="1.9"/>
<rect x="142" y="4.1" class="st1" width="0.7" height="1.9"/>
<rect x="144.1" y="4.1" class="st1" width="0.7" height="1.9"/>
<rect x="146.3" y="4.1" class="st1" width="0.7" height="1.9"/>
<rect x="151.2" y="4.1" class="st1" width="0.7" height="1.9"/>
<rect x="153.4" y="4.1" class="st1" width="0.7" height="1.9"/>
<rect x="155.6" y="4.1" class="st1" width="0.7" height="1.9"/>
<rect x="157.7" y="4.1" class="st1" width="0.7" height="1.9"/>
<rect x="162.6" y="4.1" class="st1" width="0.7" height="1.9"/>
<rect x="164.8" y="4.1" class="st1" width="0.7" height="1.9"/>
<rect x="167" y="4.1" class="st1" width="0.7" height="1.9"/>
<rect x="169.1" y="4.1" class="st1" width="0.7" height="1.9"/>
<rect x="174.1" y="4.1" class="st1" width="0.7" height="1.9"/>
<rect x="176.2" y="4.1" class="st1" width="0.7" height="1.9"/>
<rect x="178.4" y="4.1" class="st1" width="0.7" height="1.9"/>
<rect x="180.6" y="4.1" class="st1" width="0.7" height="1.9"/>
<rect x="14.1" y="4.1" class="st1" width="0.7" height="1.9"/>
<rect x="16.3" y="4.1" class="st1" width="0.7" height="1.9"/>
<rect x="18.5" y="4.1" class="st1" width="0.7" height="1.9"/>
<rect x="20.7" y="4.1" class="st1" width="0.7" height="1.9"/>
</svg>
